# xmcd
# Track frame offsets:
# 150
# 19617
# 38172
# 62132
# 73337
# 93582
# 107390
# 127760
# 145640
# 158350
# 181585
# 197340
# 219155
#
# Disc length: 3061 seconds
# Revision: 0
# Processed by: cddbd v1.5.2PL0 Copyright (c) Steve Scherf et al.
# Submitted via: VisiTrax 2.10.0.248 - For more info visit www.synapsa.com
#
DISCID=9b0bf30d
DTITLE=Hundt, Gerry - Since Way Back
DYEAR=2007
DGENRE=Blues
TTITLE0=Since Way Back
TTITLE1=Ready to Go
TTITLE2=Bad Water
TTITLE3=The Union Meetin'
TTITLE4=Hard Road
TTITLE5=Whiskey Makes Me Mean
TTITLE6=That Woman!
TTITLE7=Burning Fire
TTITLE8=You're the One
TTITLE9=Trying Hard
TTITLE10=The Lakewood Bump
TTITLE11=Here in Chicago
TTITLE12=End of the Day Blues [*]
EXTD=
EXTT0=
EXTT1=
EXTT2=
EXTT3=
EXTT4=
EXTT5=
EXTT6=
EXTT7=
EXTT8=
EXTT9=
EXTT10=
EXTT11=
EXTT12=
PLAYORDER=
